<svg id="Capa_1" enable-background="new 0 0 512 512" height="512" viewBox="0 0 512 512" width="512" xmlns="http://www.w3.org/2000/svg"><g><path d="m284.483 76.57c-12.82-12.81-29.651-19.24-46.491-19.29-21.778-.409-44.732 11.801-56.402 31.42l-49.922-16.64c1.73-18.87-4.61-38.35-19.021-52.76-12.869-12.87-29.77-19.3-46.67-19.3s-33.801 6.43-46.671 19.3c-25.741 25.73-25.741 67.62 0 93.35 14.45 14.376 33.63 20.745 52.752 19.01l16.64 49.93c-4.3 2.65-8.38 5.82-12.11 9.55-25.741 25.73-25.741 67.61 0 93.35 12.79 12.79 29.571 19.23 46.391 19.3h.28c16.9 0 33.801-6.44 46.661-19.3 22.101-22.09 25.211-56.06 9.38-81.51l23.671-23.67c6.51 4.05 13.62 6.91 20.991 8.49v-39.77c0-13.62 5.31-26.42 14.95-36.06 15.846-16.374 42.82-19.747 62.102-7.68-3.1-10.34-8.72-19.9-16.531-27.72zm-126.393 105.19c-12.408-7.689-26.715-10.949-40.911-9.63l-16.65-49.93c8.611-5.209 16.461-13.059 21.671-21.67l49.872 16.62c-1.36 14.37 2.03 28.72 9.67 40.96z"/><path d="m512 305.17v77.82c0 34.46-13.42 66.85-37.801 91.22-24.351 24.37-56.752 37.79-91.213 37.79h-56.942c-79.442 0-144.084-64.64-144.084-144.08 0-26.25 17.831-48.39 42.001-54.99v56.18c0 8.29 6.72 15 15 15 8.29 0 15-6.71 15-15v-221.08c0-5.61 2.19-10.88 6.16-14.85 3.98-3.98 9.24-6.15 14.85-6.15h.51c11.3.27 20.491 10.01 20.491 21.73v179.69c0 8.28 6.72 15 15 15s15-6.72 15-15v-96.01c0-5.61 2.19-10.88 6.16-14.85s9.241-6.16 14.841-6.16c5.61 0 10.88 2.19 14.85 6.16s6.16 9.24 6.16 14.85v96.01c0 8.28 6.71 15 15 15 8.28 0 15-6.72 15-15v-60.01c0-5.6 2.18-10.88 6.15-14.85s9.241-6.15 14.851-6.15c5.6 0 10.88 2.18 14.851 6.15 3.97 3.97 6.15 9.25 6.15 14.85v60.01c0 8.28 6.72 15 15 15 8.29 0 15-6.72 15-15v-24.01c0-5.6 2.19-10.87 6.16-14.84 4.1-4.1 9.56-6.28 15.351-6.15 11.304.26 20.504 10.01 20.504 21.72z"/></g></svg>